{"accessors" : [{"bufferView" : 0, "byteOffset" : 0, "componentType" : 5123, "count" : 4146, "type" : "SCALAR", "max" : [3491], "min" : [0]}, {"bufferView" : 1, "byteOffset" : 0, "componentType" : 5126, "count" : 3492, "type" : "VEC3", "max" : [39.9650993347168, 40, 39.970645904541016], "min" : [-40, 0, -39.970645904541016], "name" : "POSITION"}, {"bufferView" : 1, "byteOffset" : 12, "componentType" : 5126, "count" : 3492, "type" : "VEC2", "max" : [4, 12.566370964050293], "min" : [-4, -12.566370964050293], "name" : "TEXCOORD_0"}, {"bufferView" : 1, "byteOffset" : 20, "componentType" : 5126, "count" : 3492, "type" : "VEC3", "max" : [1.0000044107437134, 1.0000044107437134, 1.0000044107437134], "min" : [-1.0000044107437134, -1.0000044107437134, -1.0000044107437134], "name" : "NORMAL"}, {"bufferView" : 0, "byteOffset" : 8292, "componentType" : 5123, "count" : 2598, "type" : "SCALAR", "max" : [2181], "min" : [0]}, {"bufferView" : 2, "byteOffset" : 0, "componentType" : 5126, "count" : 2182, "type" : "VEC3", "max" : [40, 45, 39.91481399536133], "min" : [-40, 40, -39.91481399536133], "name" : "POSITION"}, {"bufferView" : 2, "byteOffset" : 12, "componentType" : 5126, "count" : 2182, "type" : "VEC2", "max" : [4, 12.63005542755127], "min" : [-4, -12.7876615524292], "name" : "TEXCOORD_0"}, {"bufferView" : 2, "byteOffset" : 20, "componentType" : 5126, "count" : 2182, "type" : "VEC3", "max" : [1.0000044107437134, 1.0000044107437134, 1.0000044107437134], "min" : [-1.0000044107437134, -1.0000044107437134, -1.0000044107437134], "name" : "NORMAL"}, {"bufferView" : 0, "byteOffset" : 13488, "componentType" : 5123, "count" : 492, "type" : "SCALAR", "max" : [414], "min" : [0]}, {"bufferView" : 3, "byteOffset" : 0, "componentType" : 5126, "count" : 415, "type" : "VEC3", "max" : [11, 45.04999923706055, 10.969242095947266], "min" : [-11, 40, -10.969242095947266], "name" : "POSITION"}, {"bufferView" : 3, "byteOffset" : 12, "componentType" : 5126, "count" : 415, "type" : "VEC2", "max" : [1.100000023841858, 3.455751895904541], "min" : [-1.100000023841858, -3.455751895904541], "name" : "TEXCOORD_0"}, {"bufferView" : 3, "byteOffset" : 20, "componentType" : 5126, "count" : 415, "type" : "VEC3", "max" : [1.0000044107437134, 1.0000044107437134, 0.9972081780433655], "min" : [-1.0000044107437134, -1.0000044107437134, -0.9972081780433655], "name" : "NORMAL"}], "asset" : {"generator" : "Aspose.3D 22.6", "version" : "2.0"}, "buffers" : [{"uri" : "data:application/octet-stream;base64,", "byteLength" : 246040}], "bufferViews" : [{"buffer" : 0, "byteOffset" : 0, "byteLength" : 14472, "target" : 34963}, {"buffer" : 0, "byteOffset" : 14476, "byteLength" : 132672, "byteStride" : 32, "target" : 34962}, {"buffer" : 0, "byteOffset" : 147152, "byteLength" : 83136, "byteStride" : 32, "target" : 34962}, {"buffer" : 0, "byteOffset" : 230292, "byteLength" : 15744, "byteStride" : 32, "target" : 34962}], "meshes" : [{"primitives" : [{"attributes" : {"POSITION" : 1, "TEXCOORD_0" : 2, "NORMAL" : 3}, "indices" : 0, "mode" : 4}], "name" : ""}, {"primitives" : [{"attributes" : {"POSITION" : 5, "TEXCOORD_0" : 6, "NORMAL" : 7}, "indices" : 4, "mode" : 4}], "name" : ""}, {"primitives" : [{"attributes" : {"POSITION" : 9, "TEXCOORD_0" : 10, "NORMAL" : 11}, "indices" : 8, "mode" : 4}], "name" : ""}], "nodes" : [{"mesh" : 0, "name" : "Body1"}, {"mesh" : 1, "name" : "Body2"}, {"mesh" : 2, "name" : "Body8"}], "scene" : 0, "scenes" : [{"nodes" : [0, 1, 2]}]}