{"asset":{"version":"2.0","generator":"VECTARY"},"nodes":[{"translation":[0.015521065183478414,1.1368683772161603e-16,-0.5904875753592775],"scale":[0.0010000000000000002,0.0010000000000000002,0.001],"rotation":[-0.5,0.4999999999999999,0.5,0.5000000000000001],"name":"Box 2","mesh":0},{"translation":[-0.6051170124188886,0,0],"scale":[0.001,0.001,0.001],"rotation":[-0.7071067811865475,0,0,0.7071067811865476],"name":"Box 1","mesh":1},{"translation":[0,0,0],"scale":[0.001,0.001,0.001],"rotation":[-0.7071067811865475,0,0,0.7071067811865476],"name":"Box","mesh":2},{"translation":[3.200352863352852e-20,0.6891170422212197,1.1368683772161603e-16],"scale":[0.0009999999999999998,0.0009999999999999998,0.001],"rotation":[0.6682835578915276,-0.6656266940189467,-0.2310780955690982,0.23862335218793565],"name":"Cylinder 5","mesh":3},{"translation":[0,0.5597410973929037,1.1368683772161603e-16],"scale":[0.0009999999999999998,0.001,0.0009999999999999998],"rotation":[-0.17091303747836362,0.17866415256161988,-0.6861404620191986,0.6841630804051315],"name":"Cylinder 7","mesh":4},{"translation":[3.208890436224013e-19,0.5597410973929037,1.1368683772161603e-16],"scale":[0.0009999999999999998,0.0009999999999999998,0.0009999999999999998],"rotation":[0.4991966202962178,-0.49349928905415746,-0.5008020909349657,0.5064172703443683],"name":"Cylinder 8","mesh":5},{"translation":[0,0.5597410973929037,1.1368683772161603e-16],"scale":[0.0009999999999999998,0.0009999999999999998,0.0009999999999999998],"rotation":[-0.6673419882052787,0.6699439895604948,-0.23378338430740928,0.2262190329122808],"name":"Cylinder 9","mesh":6},{"translation":[0,0.6891170422212197,1.1368683772161603e-16],"scale":[0.001,0.001,0.0009999999999999998],"rotation":[0.14738222213111868,-0.13954924003719132,-0.6915768074478015,0.6931998338178121],"name":"Cylinder 4","mesh":7},{"translation":[0,0.6891170422212197,1.1368683772161603e-16],"scale":[0.001,0.001,0.001],"rotation":[-0.49716379897258023,0.5028202034436879,-0.5028202034436879,0.49716379897258034],"name":"Cylinder 3","mesh":8},{"translation":[0,0.6628694320700287,1.1368683772161603e-16],"scale":[0.003948870530910899,0.003948870530910899,0.003948870530910899],"rotation":[-0.7071067811865474,0,0,0.7071067811865475],"name":"Cylinder 11 & Cylinder 12","mesh":9},{"translation":[0,0.5339259734807656,1.1368683772161603e-16],"scale":[0.003948870530910899,0.003948870530910899,0.003948870530910899],"rotation":[-0.7071067811865474,0,0,0.7071067811865475],"name":"Cylinder 10 & Cylinder 13","mesh":10},{"translation":[0,0.5043286014403948,8.526512829121202e-17],"scale":[0.0024389876221441098,0.0024389876221441098,0.0024389876221441098],"rotation":[-0.7071067811865475,0,0,0.7071067811865476],"name":"Cylinder 2 & Cylinder 6 & Cylinder 11 & Cylinder 10","mesh":11},{"translation":[0,0.04119928004384894,7.105427357601002e-18],"scale":[0.001,0.001,0.001],"rotation":[-0.7071067811865475,0,0,0.7071067811865476],"name":"Cylinder 1","mesh":12},{"translation":[0,0.04119928004384894,7.105427357601002e-18],"scale":[0.001,0.001,0.001],"rotation":[-0.7071067811865475,0,0,0.7071067811865476],"name":"Cylinder","mesh":13},{"translation":[0,0.6260132208296055,1.1368683772161603e-16],"scale":[0.001,0.001,0.001],"rotation":[-0.7071067811865475,0,0,0.7071067811865476],"name":"Point Light 1","extensions":{"KHR_lights_punctual":{"light":0}}},{"translation":[-0.06052911890478188,0.24560852275574496,0.0003995401415709665],"scale":[0.00015446783021920784,0.00015446783021920784,0.00015446783021920784],"rotation":[-0.7071067811865475,0,0,0.7071067811865476],"name":"Sphere","mesh":14},{"translation":[-0.060479113396920456,0.25771488005212684,5.684341886080802e-17],"scale":[0.001,0.001,0.001],"rotation":[-0.6945773541374103,0.13252282489999384,0.13252282489999384,0.6945773541374104],"name":"Cylinder 14","mesh":15}],"materials":[{"pbrMetallicRoughness":{"baseColorFactor":[0.8670237934377415,0.8670237934377415,0.8670237934377415,1],"metallicFactor":0,"roughnessFactor":0.2},"name":"Silent Storm 1","emissiveFactor":[0,0,0],"extensions":{},"alphaMode":"OPAQUE","doubleSided":false},{"pbrMetallicRoughness":{"baseColorFactor":[0.8670237934377415,0.8670237934377415,0.8670237934377415,1],"metallicFactor":0,"roughnessFactor":0.2},"name":"Silent Storm","emissiveFactor":[0,0,0],"extensions":{},"alphaMode":"OPAQUE","doubleSided":false},{"pbrMetallicRoughness":{"baseColorFactor":[0.8670237934377415,0.8670237934377415,0.8670237934377415,1],"metallicFactor":0,"roughnessFactor":0.2},"name":"Ava","emissiveFactor":[0,0,0],"extensions":{},"alphaMode":"OPAQUE","doubleSided":false},{"pbrMetallicRoughness":{"baseColorFactor":[0,0,0,1],"metallicFactor":0,"roughnessFactor":0.2},"name":"Felix 2","emissiveFactor":[0,0,0],"extensions":{},"alphaMode":"OPAQUE","doubleSided":false},{"pbrMetallicRoughness":{"baseColorFactor":[0,0,0,1],"metallicFactor":0,"roughnessFactor":0.2},"name":"Felix 3","emissiveFactor":[0,0,0],"extensions":{},"alphaMode":"OPAQUE","doubleSided":false},{"pbrMetallicRoughness":{"baseColorFactor":[0,0,0,1],"metallicFactor":0,"roughnessFactor":0.2},"name":"Felix 4","emissiveFactor":[0,0,0],"extensions":{},"alphaMode":"OPAQUE","doubleSided":false},{"pbrMetallicRoughness":{"baseColorFactor":[0,0,0,1],"metallicFactor":0,"roughnessFactor":0.2},"name":"Felix 5","emissiveFactor":[0,0,0],"extensions":{},"alphaMode":"OPAQUE","doubleSided":false},{"pbrMetallicRoughness":{"baseColorFactor":[0,0,0,1],"metallicFactor":0,"roughnessFactor":0.2},"name":"Felix 1","emissiveFactor":[0,0,0],"extensions":{},"alphaMode":"OPAQUE","doubleSided":false},{"pbrMetallicRoughness":{"baseColorFactor":[0,0,0,1],"metallicFactor":0,"roughnessFactor":0.2},"name":"Felix","emissiveFactor":[0,0,0],"extensions":{},"alphaMode":"OPAQUE","doubleSided":false},{"pbrMetallicRoughness":{"baseColorFactor":[0.5356416093153108,0.5356416093153108,0.5356416093153108,1],"metallicFactor":1,"roughnessFactor":0.05},"name":"Silver Glossy 1","emissiveFactor":[0,0,0],"extensions":{},"alphaMode":"OPAQUE","doubleSided":false},{"pbrMetallicRoughness":{"baseColorFactor":[0.5356416093153108,0.5356416093153108,0.5356416093153108,1],"metallicFactor":1,"roughnessFactor":0.05},"name":"Silver Glossy","emissiveFactor":[0,0,0],"extensions":{},"alphaMode":"OPAQUE","doubleSided":false},{"pbrMetallicRoughness":{"baseColorFactor":[1,1,1,0.98],"baseColorTexture":{"index":0,"extensions":{"KHR_texture_transform":{"offset":[0,0],"scale":[1,1],"rotation":0}},"texCoord":0},"metallicFactor":0,"roughnessFactor":1},"name":"Fabric","normalTexture":{"index":1,"scale":1,"extensions":{"KHR_texture_transform":{"offset":[0,0],"scale":[1,1],"rotation":0}},"texCoord":0},"emissiveFactor":[0,0,0],"extensions":{},"alphaMode":"BLEND","doubleSided":false},{"pbrMetallicRoughness":{"baseColorFactor":[0,0,0,1],"metallicFactor":0,"roughnessFactor":0.2},"name":"California","emissiveFactor":[0,0,0],"extensions":{},"alphaMode":"OPAQUE","doubleSided":false},{"pbrMetallicRoughness":{"baseColorFactor":[0.8670237934377415,0.8670237934377415,0.8670237934377415,1],"metallicFactor":0,"roughnessFactor":0.2},"name":"Berry","emissiveFactor":[0,0,0],"extensions":{},"alphaMode":"OPAQUE","doubleSided":false},{"pbrMetallicRoughness":{"baseColorFactor":[0,0,0,1],"metallicFactor":0,"roughnessFactor":0.2},"name":"Forbidden Thrill","emissiveFactor":[0,0,0],"extensions":{},"alphaMode":"OPAQUE","doubleSided":false},{"pbrMetallicRoughness":{"baseColorFactor":[1,1,1,1],"baseColorTexture":{"index":2,"extensions":{"KHR_texture_transform":{"offset":[0,0],"scale":[1,1],"rotation":0}},"texCoord":0},"metallicRoughnessTexture":{"index":4,"extensions":{"KHR_texture_transform":{"offset":[0,0],"scale":[1,1],"rotation":0}},"texCoord":0},"metallicFactor":0,"roughnessFactor":1},"name":"Fabric 1","normalTexture":{"index":3,"scale":1,"extensions":{"KHR_texture_transform":{"offset":[0,0],"scale":[1,1],"rotation":0}},"texCoord":0},"emissiveFactor":[0,0,0],"extensions":{},"alphaMode":"OPAQUE","doubleSided":false}],"meshes":[{"primitives":[{"mode":4,"attributes":{"POSITION":1,"NORMAL":2,"TEXCOORD_0":3},"material":0,"indices":0}]},{"primitives":[{"mode":4,"attributes":{"POSITION":5,"NORMAL":6,"TEXCOORD_0":7},"material":1,"indices":4}]},{"primitives":[{"mode":4,"attributes":{"POSITION":9,"NORMAL":10,"TEXCOORD_0":11},"material":2,"indices":8}]},{"primitives":[{"mode":4,"attributes":{"POSITION":13,"NORMAL":14,"TEXCOORD_0":15},"material":3,"indices":12}]},{"primitives":[{"mode":4,"attributes":{"POSITION":17,"NORMAL":18,"TEXCOORD_0":19},"material":4,"indices":16}]},{"primitives":[{"mode":4,"attributes":{"POSITION":21,"NORMAL":22,"TEXCOORD_0":23},"material":5,"indices":20}]},{"primitives":[{"mode":4,"attributes":{"POSITION":25,"NORMAL":26,"TEXCOORD_0":27},"material":6,"indices":24}]},{"primitives":[{"mode":4,"attributes":{"POSITION":29,"NORMAL":30,"TEXCOORD_0":31},"material":7,"indices":28}]},{"primitives":[{"mode":4,"attributes":{"POSITION":33,"NORMAL":34,"TEXCOORD_0":35},"material":8,"indices":32}]},{"primitives":[{"mode":4,"attributes":{"POSITION":37,"NORMAL":38,"TEXCOORD_0":39},"material":9,"indices":36}]},{"primitives":[{"mode":4,"attributes":{"POSITION":41,"NORMAL":42,"TEXCOORD_0":43},"material":10,"indices":40}]},{"primitives":[{"mode":4,"attributes":{"POSITION":45,"NORMAL":46,"TEXCOORD_0":47},"material":11,"indices":44}]},{"primitives":[{"mode":4,"attributes":{"POSITION":49,"NORMAL":50,"TEXCOORD_0":51},"material":12,"indices":48}]},{"primitives":[{"mode":4,"attributes":{"POSITION":53,"NORMAL":54,"TEXCOORD_0":55},"material":13,"indices":52}]},{"primitives":[{"mode":4,"attributes":{"POSITION":57,"NORMAL":58,"TEXCOORD_0":59},"material":14,"indices":56}]},{"primitives":[{"mode":4,"attributes":{"POSITION":61,"NORMAL":62,"TEXCOORD_0":63},"material":15,"indices":60}]}],"accessors":[{"bufferView":0,"byteOffset":0,"componentType":5125,"count":2916,"type":"SCALAR"},{"bufferView":1,"byteOffset":0,"componentType":5126,"count":596,"max":[20.5,610.5,988],"min":[-20.5,-610.5,0],"type":"VEC3"},{"bufferView":2,"byteOffset":0,"componentType":5126,"count":596,"type":"VEC3"},{"bufferView":3,"byteOffset":0,"componentType":5126,"count":596,"type":"VEC2"},{"bufferView":4,"byteOffset":0,"componentType":5125,"count":2916,"type":"SCALAR"},{"bufferView":5,"byteOffset":0,"componentType":5126,"count":596,"max":[20.5,609,988],"min":[-20.5,-609,0],"type":"VEC3"},{"bufferView":6,"byteOffset":0,"componentType":5126,"count":596,"type":"VEC3"},{"bufferView":7,"byteOffset":0,"componentType":5126,"count":596,"type":"VEC2"},{"bufferView":8,"byteOffset":0,"componentType":5125,"count":2916,"type":"SCALAR"},{"bufferView":9,"byteOffset":0,"componentType":5126,"count":596,"max":[626,609,35],"min":[-626,-609,0],"type":"VEC3"},{"bufferView":10,"byteOffset":0,"componentType":5126,"count":596,"type":"VEC3"},{"bufferView":11,"byteOffset":0,"componentType":5126,"count":596,"type":"VEC2"},{"bufferView":12,"byteOffset":0,"componentType":5125,"count":6144,"type":"SCALAR"},{"bufferView":13,"byteOffset":0,"componentType":5126,"count":1172,"max":[3.799999952316284,3.799999952316284,121.69999694824219],"min":[-3.799999952316284,-3.799999952316284,0],"type":"VEC3"},{"bufferView":14,"byteOffset":0,"componentType":5126,"count":1172,"type":"VEC3"},{"bufferView":15,"byteOffset":0,"componentType":5126,"count":1172,"type":"VEC2"},{"bufferView":16,"byteOffset":0,"componentType":5125,"count":6144,"type":"SCALAR"},{"bufferView":17,"byteOffset":0,"componentType":5126,"count":1172,"max":[3.799999952316284,3.799999952316284,121.69999694824219],"min":[-3.799999952316284,-3.799999952316284,0],"type":"VEC3"},{"bufferView":18,"byteOffset":0,"componentType":5126,"count":1172,"type":"VEC3"},{"bufferView":19,"byteOffset":0,"componentType":5126,"count":1172,"type":"VEC2"},{"bufferView":20,"byteOffset":0,"componentType":5125,"count":6144,"type":"SCALAR"},{"bufferView":21,"byteOffset":0,"componentType":5126,"count":1172,"max":[3.799999952316284,3.799999952316284,121.69999694824219],"min":[-3.799999952316284,-3.799999952316284,0],"type":"VEC3"},{"bufferView":22,"byteOffset":0,"componentType":5126,"count":1172,"type":"VEC3"},{"bufferView":23,"byteOffset":0,"componentType":5126,"count":1172,"type":"VEC2"},{"bufferView":24,"byteOffset":0,"componentType":5125,"count":6144,"type":"SCALAR"},{"bufferView":25,"byteOffset":0,"componentType":5126,"count":1172,"max":[3.799999952316284,3.799999952316284,121.69999694824219],"min":[-3.799999952316284,-3.799999952316284,0],"type":"VEC3"},{"bufferView":26,"byteOffset":0,"componentType":5126,"count":1172,"type":"VEC3"},{"bufferView":27,"byteOffset":0,"componentType":5126,"count":1172,"type":"VEC2"},{"bufferView":28,"byteOffset":0,"componentType":5125,"count":6144,"type":"SCALAR"},{"bufferView":29,"byteOffset":0,"componentType":5126,"count":1172,"max":[3.799999952316284,3.799999952316284,121.69999694824219],"min":[-3.799999952316284,-3.799999952316284,0],"type":"VEC3"},{"bufferView":30,"byteOffset":0,"componentType":5126,"count":1172,"type":"VEC3"},{"bufferView":31,"byteOffset":0,"componentType":5126,"count":1172,"type":"VEC2"},{"bufferView":32,"byteOffset":0,"componentType":5125,"count":6144,"type":"SCALAR"},{"bufferView":33,"byteOffset":0,"componentType":5126,"count":1172,"max":[3.799999952316284,3.799999952316284,121.69999694824219],"min":[-3.799999952316284,-3.799999952316284,0],"type":"VEC3"},{"bufferView":34,"byteOffset":0,"componentType":5126,"count":1172,"type":"VEC3"},{"bufferView":35,"byteOffset":0,"componentType":5126,"count":1172,"type":"VEC2"},{"bufferView":36,"byteOffset":0,"componentType":5125,"count":5376,"type":"SCALAR"},{"bufferView":37,"byteOffset":0,"componentType":5126,"count":3352,"max":[31.399999618530273,31.399999618530273,12.084863662719727],"min":[-31.399999618530273,-31.399999618530273,0.5151362419128418],"type":"VEC3"},{"bufferView":38,"byteOffset":0,"componentType":5126,"count":3352,"type":"VEC3"},{"bufferView":39,"byteOffset":0,"componentType":5126,"count":3352,"type":"VEC2"},{"bufferView":40,"byteOffset":0,"componentType":5125,"count":5376,"type":"SCALAR"},{"bufferView":41,"byteOffset":0,"componentType":5126,"count":3356,"max":[31.399999618530273,31.399999618530273,12.084863662719727],"min":[-31.399999618530273,-31.399999618530273,0.5151362419128418],"type":"VEC3"},{"bufferView":42,"byteOffset":0,"componentType":5126,"count":3356,"type":"VEC3"},{"bufferView":43,"byteOffset":0,"componentType":5126,"count":3356,"type":"VEC2"},{"bufferView":44,"byteOffset":0,"componentType":5125,"count":13824,"type":"SCALAR"},{"bufferView":45,"byteOffset":0,"componentType":5126,"count":7937,"max":[50,50,99.71129608154297],"min":[-50,-50,0.2887020707130432],"type":"VEC3"},{"bufferView":46,"byteOffset":0,"componentType":5126,"count":7937,"type":"VEC3"},{"bufferView":47,"byteOffset":0,"componentType":5126,"count":7937,"type":"VEC2"},{"bufferView":48,"byteOffset":0,"componentType":5125,"count":6912,"type":"SCALAR"},{"bufferView":49,"byteOffset":0,"componentType":5126,"count":1302,"max":[6.699999809265137,6.699999809265137,718],"min":[-6.699999809265137,-6.699999809265137,0],"type":"VEC3"},{"bufferView":50,"byteOffset":0,"componentType":5126,"count":1302,"type":"VEC3"},{"bufferView":51,"byteOffset":0,"componentType":5126,"count":1302,"type":"VEC2"},{"bufferView":52,"byteOffset":0,"componentType":5125,"count":6912,"type":"SCALAR"},{"bufferView":53,"byteOffset":0,"componentType":5126,"count":1302,"max":[137.6999969482422,137.6999969482422,16.100000381469727],"min":[-137.6999969482422,-137.6999969482422,0],"type":"VEC3"},{"bufferView":54,"byteOffset":0,"componentType":5126,"count":1302,"type":"VEC3"},{"bufferView":55,"byteOffset":0,"componentType":5126,"count":1302,"type":"VEC2"},{"bufferView":56,"byteOffset":0,"componentType":5125,"count":11904,"type":"SCALAR"},{"bufferView":57,"byteOffset":0,"componentType":5126,"count":2143,"max":[50,50,100],"min":[-50,-50,0],"type":"VEC3"},{"bufferView":58,"byteOffset":0,"componentType":5126,"count":2143,"type":"VEC3"},{"bufferView":59,"byteOffset":0,"componentType":5126,"count":2143,"type":"VEC2"},{"bufferView":60,"byteOffset":0,"componentType":5125,"count":6144,"type":"SCALAR"},{"bufferView":61,"byteOffset":0,"componentType":5126,"count":1172,"max":[1,1,302.8999938964844],"min":[-1,-1,0],"type":"VEC3"},{"bufferView":62,"byteOffset":0,"componentType":5126,"count":1172,"type":"VEC3"},{"bufferView":63,"byteOffset":0,"componentType":5126,"count":1172,"type":"VEC2"}],"bufferViews":[{"buffer":0,"byteOffset":0,"byteLength":11664,"target":34963},{"buffer":0,"byteOffset":11664,"byteLength":7152,"target":34962},{"buffer":0,"byteOffset":18816,"byteLength":7152,"target":34962},{"buffer":0,"byteOffset":25968,"byteLength":4768,"target":34962},{"buffer":0,"byteOffset":30736,"byteLength":11664,"target":34963},{"buffer":0,"byteOffset":42400,"byteLength":7152,"target":34962},{"buffer":0,"byteOffset":49552,"byteLength":7152,"target":34962},{"buffer":0,"byteOffset":56704,"byteLength":4768,"target":34962},{"buffer":0,"byteOffset":61472,"byteLength":11664,"target":34963},{"buffer":0,"byteOffset":73136,"byteLength":7152,"target":34962},{"buffer":0,"byteOffset":80288,"byteLength":7152,"target":34962},{"buffer":0,"byteOffset":87440,"byteLength":4768,"target":34962},{"buffer":0,"byteOffset":92208,"byteLength":24576,"target":34963},{"buffer":0,"byteOffset":116784,"byteLength":14064,"target":34962},{"buffer":0,"byteOffset":130848,"byteLength":14064,"target":34962},{"buffer":0,"byteOffset":144912,"byteLength":9376,"target":34962},{"buffer":0,"byteOffset":154288,"byteLength":24576,"target":34963},{"buffer":0,"byteOffset":178864,"byteLength":14064,"target":34962},{"buffer":0,"byteOffset":192928,"byteLength":14064,"target":34962},{"buffer":0,"byteOffset":206992,"byteLength":9376,"target":34962},{"buffer":0,"byteOffset":216368,"byteLength":24576,"target":34963},{"buffer":0,"byteOffset":240944,"byteLength":14064,"target":34962},{"buffer":0,"byteOffset":255008,"byteLength":14064,"target":34962},{"buffer":0,"byteOffset":269072,"byteLength":9376,"target":34962},{"buffer":0,"byteOffset":278448,"byteLength":24576,"target":34963},{"buffer":0,"byteOffset":303024,"byteLength":14064,"target":34962},{"buffer":0,"byteOffset":317088,"byteLength":14064,"target":34962},{"buffer":0,"byteOffset":331152,"byteLength":9376,"target":34962},{"buffer":0,"byteOffset":340528,"byteLength":24576,"target":34963},{"buffer":0,"byteOffset":365104,"byteLength":14064,"target":34962},{"buffer":0,"byteOffset":379168,"byteLength":14064,"target":34962},{"buffer":0,"byteOffset":393232,"byteLength":9376,"target":34962},{"buffer":0,"byteOffset":402608,"byteLength":24576,"target":34963},{"buffer":0,"byteOffset":427184,"byteLength":14064,"target":34962},{"buffer":0,"byteOffset":441248,"byteLength":14064,"target":34962},{"buffer":0,"byteOffset":455312,"byteLength":9376,"target":34962},{"buffer":0,"byteOffset":464688,"byteLength":21504,"target":34963},{"buffer":0,"byteOffset":486192,"byteLength":40224,"target":34962},{"buffer":0,"byteOffset":526416,"byteLength":40224,"target":34962},{"buffer":0,"byteOffset":566640,"byteLength":26816,"target":34962},{"buffer":0,"byteOffset":593456,"byteLength":21504,"target":34963},{"buffer":0,"byteOffset":614960,"byteLength":40272,"target":34962},{"buffer":0,"byteOffset":655232,"byteLength":40272,"target":34962},{"buffer":0,"byteOffset":695504,"byteLength":26848,"target":34962},{"buffer":0,"byteOffset":722352,"byteLength":55296,"target":34963},{"buffer":0,"byteOffset":777648,"byteLength":95244,"target":34962},{"buffer":0,"byteOffset":872892,"byteLength":95244,"target":34962},{"buffer":0,"byteOffset":968136,"byteLength":63496,"target":34962},{"buffer":0,"byteOffset":1031632,"byteLength":27648,"target":34963},{"buffer":0,"byteOffset":1059280,"byteLength":15624,"target":34962},{"buffer":0,"byteOffset":1074904,"byteLength":15624,"target":34962},{"buffer":0,"byteOffset":1090528,"byteLength":10416,"target":34962},{"buffer":0,"byteOffset":1100944,"byteLength":27648,"target":34963},{"buffer":0,"byteOffset":1128592,"byteLength":15624,"target":34962},{"buffer":0,"byteOffset":1144216,"byteLength":15624,"target":34962},{"buffer":0,"byteOffset":1159840,"byteLength":10416,"target":34962},{"buffer":0,"byteOffset":1170256,"byteLength":47616,"target":34963},{"buffer":0,"byteOffset":1217872,"byteLength":25716,"target":34962},{"buffer":0,"byteOffset":1243588,"byteLength":25716,"target":34962},{"buffer":0,"byteOffset":1269304,"byteLength":17144,"target":34962},{"buffer":0,"byteOffset":1286448,"byteLength":24576,"target":34963},{"buffer":0,"byteOffset":1311024,"byteLength":14064,"target":34962},{"buffer":0,"byteOffset":1325088,"byteLength":14064,"target":34962},{"buffer":0,"byteOffset":1339152,"byteLength":9376,"target":34962}],"textures":[{"sampler":0,"source":0},{"sampler":0,"source":1},{"sampler":0,"source":2},{"sampler":0,"source":3},{"sampler":0,"source":4}],"images":[{"uri":"Fabric_009_Color_1.jpg","mimeType":"image/jpeg"},{"uri":"Fabric_009_Normal.jpg","mimeType":"image/jpeg"},{"uri":"Fabric_009_Color.jpg","mimeType":"image/jpeg"},{"uri":"Fabric_009_Normal_1.jpg","mimeType":"image/jpeg"},{"uri":"metallicTexture&Fabric_009_Rough.jpg","mimeType":"image/jpeg"}],"samplers":[{"wrapS":10497,"wrapT":10497}],"extensions":{"KHR_lights_punctual":{"lights":[{"name":"Point Light 1","type":"point","intensity":2,"range":10000,"color":[0.9764705882352941,1,0.8784313725490196]}]}},"scene":0,"scenes":[{"nodes":[0,1,2,3,4,5,6,7,8,9,10,11,12,13,14,15,16],"name":"Project Name"}],"extensionsUsed":["KHR_texture_transform","KHR_lights_punctual"],"extensionsRequired":["KHR_lights_punctual"],"buffers":[{"byteLength":1348528,"uri":"ProjectName.bin"}]}